# xmcd
#
# Track frame offsets:
#	150
#	19883
#	34488
#	57096
#	71139
#	82281
#	94940
#	115046
#	132915
#	147325
#	158378
#	176039
#	189935
#	203663
#	222789
#	238043
#	253617
#	267567
#	282895
#	297461
#
# Disc length: 4180 seconds
#
# Revision: 1
# Processed by: cddbd v1.5.1PL2 Copyright (c) Steve Scherf et al.
# Submitted via: audiograbber 1.83.01
#
DISCID=33105214
DTITLE=Various Artist - Гуляночка 3
DYEAR=1900
DGENRE=
TTITLE0=С. Любавин - Пиво
TTITLE1=Сладкая ягода - Виновата
TTITLE2=В. Королев - За тебя, родная
TTITLE3=А. Кирьянов - Чарка
TTITLE4=Таис - Я такая пьяная
TTITLE5=Белый день - Димочка
TTITLE6=Жека - Цыганка
TTITLE7=М. Круг и В. Цыганова - Шансонье
TTITLE8=Там Америки нет - Ва Па Ба
TTITLE9=А. Широков - Старые окраины
TTITLE10=Лесоповал - Посидим пацаны
TTITLE11=Т. Тишинская - А ты налей мне белого вина
TTITLE12=Сладкая ягода - Рано согрешила
TTITLE13=А. Стёпин - Мы еще споем
TTITLE14=К. Огонёк - Тук-тук
TTITLE15=С. Трофимов - Ой, мамочки
TTITLE16=Белый день - Полюбила я еврея
TTITLE17=Воровайки - На лазурном берегу
TTITLE18=Колыма - Дембеля
TTITLE19=Пятилетка - А у времени года
EXTD=
EXTT0=
EXTT1=
EXTT2=
EXTT3=
EXTT4=
EXTT5=
EXTT6=
EXTT7=
EXTT8=
EXTT9=
EXTT10=
EXTT11=
EXTT12=
EXTT13=
EXTT14=
EXTT15=
EXTT16=
EXTT17=
EXTT18=
EXTT19=
PLAYORDER=
